<svg xmlns="http://www.w3.org/2000/svg" width="56" height="29" viewBox="0 0 56 29" fill="none">
<path d="M22.8807 12.5723V5.29954H23.7188V7.9842H23.7898C23.8513 7.8895 23.9366 7.76876 24.0455 7.62198C24.1567 7.47283 24.3153 7.34026 24.5213 7.22425C24.7296 7.10588 25.0114 7.0467 25.3665 7.0467C25.8258 7.0467 26.2306 7.16152 26.581 7.39116C26.9313 7.6208 27.2048 7.94632 27.4013 8.36772C27.5978 8.78912 27.696 9.28628 27.696 9.8592C27.696 10.4368 27.5978 10.9376 27.4013 11.3613C27.2048 11.7827 26.9325 12.1094 26.5845 12.3414C26.2365 12.5711 25.8352 12.6859 25.3807 12.6859C25.0303 12.6859 24.7498 12.6279 24.5391 12.5119C24.3284 12.3935 24.1662 12.2598 24.0526 12.1106C23.9389 11.9591 23.8513 11.8336 23.7898 11.7342H23.6903V12.5723H22.8807ZM23.7045 9.84499C23.7045 10.2569 23.7649 10.6203 23.8857 10.9352C24.0064 11.2477 24.1828 11.4927 24.4148 11.6703C24.6468 11.8455 24.9309 11.9331 25.267 11.9331C25.6174 11.9331 25.9098 11.8407 26.1442 11.6561C26.3809 11.469 26.5585 11.2181 26.6768 10.9032C26.7976 10.586 26.858 10.2333 26.858 9.84499C26.858 9.46147 26.7988 9.11583 26.6804 8.80806C26.5644 8.49793 26.388 8.2529 26.1513 8.07298C25.9169 7.89068 25.6222 7.79954 25.267 7.79954C24.9261 7.79954 24.6397 7.88595 24.4077 8.05877C24.1757 8.22923 24.0005 8.46834 23.8821 8.7761C23.7637 9.0815 23.7045 9.4378 23.7045 9.84499ZM29.3224 14.6177C29.1804 14.6177 29.0537 14.6059 28.9425 14.5822C28.8312 14.5609 28.7543 14.5396 28.7116 14.5183L28.9247 13.7797C29.1283 13.8317 29.3082 13.8507 29.4645 13.8365C29.6207 13.8223 29.7592 13.7524 29.88 13.627C30.0031 13.5038 30.1155 13.3038 30.2173 13.0268L30.3736 12.6007L28.3565 7.11772H29.2656L30.7713 11.4643H30.8281L32.3338 7.11772H33.2429L30.9276 13.3677C30.8234 13.6494 30.6944 13.8826 30.5405 14.0673C30.3866 14.2543 30.2079 14.3928 30.0043 14.4828C29.803 14.5727 29.5758 14.6177 29.3224 14.6177Z" fill="black" fill-opacity="0.38"/>
<path d="M25.6416 23.2347L24.4315 24.255C24.3148 24.3556 24.3887 24.5401 24.5481 24.5401H25.3353V25.229C24.9569 25.4764 24.5276 25.601 24.0428 25.601C23.9212 25.601 21.4519 25.58 21.4519 25.58L22.195 24.7276C21.9965 24.4245 21.8967 24.0597 21.8967 23.6247C21.8967 23.0245 22.0766 22.5445 22.4364 22.1858C22.7943 21.8287 23.2934 21.6502 23.9261 21.6502C24.6314 21.6502 25.187 21.8737 25.5909 22.3211L26.6385 21.4284C26.3861 21.0414 25.9916 20.7515 25.4644 20.552C24.9341 20.3525 24.4008 20.2549 23.866 20.2549C22.8607 20.2549 22.0165 20.5747 21.338 21.2139C20.6581 21.8548 20.317 22.6589 20.317 23.6269C20.317 24.5949 20.6674 25.4396 21.3678 26.0638C22.0668 26.688 22.9537 27.0002 24.0312 27.0002C24.5535 27.0002 25.0584 26.9013 25.5464 26.7077C26.0308 26.5112 26.4475 26.2351 26.7961 25.875V23.2356H25.6412L25.6416 23.2347Z" fill="black" fill-opacity="0.24"/>
<path d="M8.43236 26.2316C7.9043 26.7424 7.22175 26.9963 6.3798 26.9963C5.63848 26.9963 5.05522 26.801 4.63224 26.4106C4.21104 26.0201 4 25.4742 4 24.7678V19.4097L5.87446 18.5723V20.8538H7.76003V22.5334H5.87134V24.2292C5.87134 24.3821 5.87936 24.5084 5.89182 24.6107C5.90473 24.716 5.93011 24.8256 5.97108 24.9476C6.00937 25.0666 6.07882 25.16 6.17722 25.2208C6.27695 25.282 6.40385 25.3137 6.56057 25.3137C6.95283 25.3137 7.33217 25.175 7.70083 24.8997C7.86112 25.3869 8.1109 25.8364 8.43236 26.2316Z" fill="black" fill-opacity="0.24"/>
<path d="M38.7257 24.8935C38.3534 25.174 37.9701 25.3157 37.5738 25.3157C37.4171 25.3157 37.2902 25.2836 37.1905 25.2228C37.0921 25.162 37.0226 25.0691 36.9843 24.9501C36.9434 24.828 36.918 24.7184 36.9051 24.6135C36.8922 24.5116 36.8846 24.3849 36.8846 24.2325V22.4836H38.7684V20.8074H36.8846V18.5815L35.0101 19.4184V24.7702C35.0101 25.4758 35.2207 26.0212 35.6424 26.4113C36.0653 26.8013 36.6486 26.9965 37.3899 26.9965C38.263 26.9965 38.9647 26.7238 39.5004 26.1754L38.7239 24.8957L38.7257 24.894V24.8935Z" fill="black" fill-opacity="0.24"/>
<path d="M20.6227 20.7489C20.2029 21.1922 19.889 21.684 19.7038 22.2384C19.6571 22.1704 19.576 22.1164 19.4643 22.0762C19.3343 22.0304 19.2185 22.0072 19.1139 22.0072C18.718 22.0072 18.4549 22.2324 18.3249 22.6816V26.8833L18.3267 26.885H16.4504V20.3803H18.3267V20.6423C18.4122 20.5246 18.5627 20.4308 18.7799 20.3606C18.9954 20.29 19.19 20.2549 19.3627 20.2549C19.8948 20.2549 20.3182 20.4209 20.6227 20.7489Z" fill="black" fill-opacity="0.24"/>
<path d="M33.1138 24.7445L34.0897 25.6984C33.3751 26.5663 32.4085 26.9995 31.1917 26.9995C30.1142 26.9995 29.2398 26.6904 28.5648 26.0735C27.8929 25.4565 27.5554 24.6452 27.5554 23.6361C27.5554 22.627 27.8773 21.793 28.5189 21.1803C29.1605 20.5681 30.0051 20.262 31.0479 20.262C31.9891 20.262 32.7576 20.536 33.3578 21.087C33.9566 21.6367 34.2563 22.359 34.2563 23.2503C34.2563 23.4833 34.2215 23.8335 34.1516 24.3023H29.3319C29.4174 24.6422 29.8106 25.1016 30.1302 25.2681C30.4504 25.4351 30.8132 25.5178 31.2188 25.5178C31.978 25.5178 32.71 25.2206 33.1156 24.7445H33.1138V24.7445ZM30.9971 21.6936C30.1035 21.6936 29.5109 22.0781 29.2211 22.8419H32.6641C32.4709 22.0781 31.9161 21.6936 31.0007 21.6936H30.9976H30.9971Z" fill="black" fill-opacity="0.24"/>
<path d="M52.0001 18.5815H49.9943V26.8621H52.0001V18.5815Z" fill="black" fill-opacity="0.24"/>
<path d="M13.8039 20.3767V20.7419C13.2683 20.4401 12.6379 20.262 11.966 20.262C9.99358 20.262 8.39294 21.7686 8.39294 23.6288C8.39294 25.4891 9.99313 26.9957 11.966 26.9957C12.6379 26.9957 13.2701 26.8176 13.8039 26.5157V26.8617H15.6797V20.3767H13.8039ZM12.2149 25.4771C11.1329 25.4771 10.2567 24.6499 10.2567 23.6288C10.2567 22.6077 11.1312 21.7823 12.2149 21.7823C12.8694 21.7823 13.4477 22.0824 13.8039 22.5486C14.0368 22.8505 14.1748 23.2234 14.1748 23.6288C14.1748 24.0343 14.0386 24.4089 13.8039 24.712C13.446 25.1752 12.8676 25.4784 12.2149 25.4784V25.4766V25.4771Z" fill="black" fill-opacity="0.24"/>
<path d="M48.1217 24.4186L48.1234 24.4173L46.2917 20.4998L45.3968 18.5815H43.9075L43.0121 20.4998L41.179 24.4232L40.0397 26.8621H42.1069L42.2895 26.4634L42.5905 25.8019H46.6737L46.9907 26.4826L47.1671 26.8621H49.2641L48.1217 24.4186V24.4186ZM43.3402 24.1615L43.4542 23.9116H43.4413L43.8518 23.0386H43.8536L44.3732 21.9336L44.8879 21.929L45.4253 23.0996L45.4631 23.1857L45.9164 24.1615H43.3402V24.1615Z" fill="black" fill-opacity="0.24"/>
</svg>