<svg width="164" height="17" viewBox="0 0 164 17" fill="none" xmlns="http://www.w3.org/2000/svg">
<path d="M1.86528 14V3.81818H5.30562C6.10439 3.81818 6.75732 3.96236 7.26443 4.25071C7.77484 4.53575 8.15268 4.92188 8.39795 5.40909C8.64321 5.89631 8.76585 6.43987 8.76585 7.03977C8.76585 7.63968 8.64321 8.1849 8.39795 8.67543C8.156 9.16596 7.78147 9.55705 7.27437 9.84872C6.76727 10.1371 6.11765 10.2812 5.32551 10.2812H2.8596V9.1875H5.28573C5.83261 9.1875 6.27177 9.09304 6.60321 8.90412C6.93464 8.7152 7.17494 8.45999 7.32409 8.13849C7.47655 7.81368 7.55278 7.44744 7.55278 7.03977C7.55278 6.6321 7.47655 6.26752 7.32409 5.94602C7.17494 5.62453 6.93299 5.37263 6.59823 5.19034C6.26348 5.00473 5.81935 4.91193 5.26585 4.91193H3.09823V14H1.86528ZM13.6131 14.1591C12.9238 14.1591 12.3189 13.995 11.7985 13.6669C11.2815 13.3388 10.8771 12.8797 10.5854 12.2898C10.2971 11.6998 10.1529 11.0104 10.1529 10.2216C10.1529 9.42614 10.2971 8.73177 10.5854 8.13849C10.8771 7.54522 11.2815 7.08452 11.7985 6.75639C12.3189 6.42827 12.9238 6.2642 13.6131 6.2642C14.3025 6.2642 14.9058 6.42827 15.4228 6.75639C15.9432 7.08452 16.3475 7.54522 16.6359 8.13849C16.9275 8.73177 17.0734 9.42614 17.0734 10.2216C17.0734 11.0104 16.9275 11.6998 16.6359 12.2898C16.3475 12.8797 15.9432 13.3388 15.4228 13.6669C14.9058 13.995 14.3025 14.1591 13.6131 14.1591ZM13.6131 13.1051C14.1368 13.1051 14.5677 12.9709 14.9058 12.7024C15.2438 12.4339 15.4941 12.081 15.6565 11.6435C15.8189 11.206 15.9001 10.732 15.9001 10.2216C15.9001 9.71117 15.8189 9.23556 15.6565 8.79474C15.4941 8.35393 15.2438 7.99763 14.9058 7.72585C14.5677 7.45407 14.1368 7.31818 13.6131 7.31818C13.0895 7.31818 12.6586 7.45407 12.3205 7.72585C11.9825 7.99763 11.7322 8.35393 11.5698 8.79474C11.4074 9.23556 11.3262 9.71117 11.3262 10.2216C11.3262 10.732 11.4074 11.206 11.5698 11.6435C11.7322 12.081 11.9825 12.4339 12.3205 12.7024C12.6586 12.9709 13.0895 13.1051 13.6131 13.1051ZM20.3347 14L18.008 6.36364H19.241L20.8916 12.2102H20.9711L22.6018 6.36364H23.8546L25.4654 12.1903H25.545L27.1955 6.36364H28.4285L26.1018 14H24.9484L23.2779 8.13352H23.1586L21.4881 14H20.3347ZM32.9216 14.1591C32.1858 14.1591 31.5511 13.9967 31.0174 13.6719C30.4871 13.3438 30.0778 12.8864 29.7895 12.2997C29.5044 11.7098 29.3619 11.0237 29.3619 10.2415C29.3619 9.45928 29.5044 8.76989 29.7895 8.1733C30.0778 7.57339 30.4789 7.10606 30.9926 6.77131C31.5096 6.43324 32.1129 6.2642 32.8022 6.2642C33.2 6.2642 33.5927 6.33049 33.9805 6.46307C34.3683 6.59564 34.7213 6.81108 35.0395 7.10938C35.3576 7.40436 35.6112 7.79545 35.8001 8.28267C35.989 8.76989 36.0835 9.36979 36.0835 10.0824V10.5795H30.1971V9.56534H34.8903C34.8903 9.13447 34.8041 8.75 34.6318 8.41193C34.4628 8.07386 34.2208 7.80705 33.9059 7.61151C33.5944 7.41596 33.2265 7.31818 32.8022 7.31818C32.3349 7.31818 31.9306 7.43419 31.5892 7.66619C31.2511 7.89489 30.9909 8.19318 30.8086 8.56108C30.6263 8.92898 30.5352 9.32339 30.5352 9.74432V10.4205C30.5352 10.9972 30.6346 11.486 30.8335 11.8871C31.0357 12.2848 31.3157 12.5881 31.6737 12.7969C32.0316 13.0024 32.4476 13.1051 32.9216 13.1051C33.2298 13.1051 33.5082 13.062 33.7568 12.9759C34.0087 12.8864 34.2258 12.7538 34.4081 12.5781C34.5904 12.3991 34.7312 12.1771 34.8307 11.9119L35.9642 12.2301C35.8449 12.6146 35.6443 12.9527 35.3626 13.2443C35.0809 13.5327 34.7329 13.758 34.3186 13.9205C33.9043 14.0795 33.4386 14.1591 32.9216 14.1591ZM37.8683 14V6.36364H39.0018V7.51705H39.0814C39.2206 7.1392 39.4725 6.83262 39.837 6.5973C40.2016 6.36198 40.6126 6.24432 41.07 6.24432C41.1562 6.24432 41.2639 6.24597 41.3932 6.24929C41.5224 6.2526 41.6202 6.25758 41.6865 6.2642V7.45739C41.6467 7.44744 41.5556 7.43253 41.413 7.41264C41.2738 7.38944 41.1263 7.37784 40.9706 7.37784C40.5994 7.37784 40.2679 7.45573 39.9763 7.61151C39.6879 7.76397 39.4592 7.97609 39.2902 8.24787C39.1245 8.51634 39.0416 8.82292 39.0416 9.16761V14H37.8683ZM46.0466 14.1591C45.3108 14.1591 44.6761 13.9967 44.1424 13.6719C43.6121 13.3438 43.2028 12.8864 42.9145 12.2997C42.6294 11.7098 42.4869 11.0237 42.4869 10.2415C42.4869 9.45928 42.6294 8.76989 42.9145 8.1733C43.2028 7.57339 43.6039 7.10606 44.1176 6.77131C44.6346 6.43324 45.2379 6.2642 45.9272 6.2642C46.325 6.2642 46.7177 6.33049 47.1055 6.46307C47.4933 6.59564 47.8463 6.81108 48.1645 7.10938C48.4826 7.40436 48.7362 7.79545 48.9251 8.28267C49.114 8.76989 49.2085 9.36979 49.2085 10.0824V10.5795H43.3221V9.56534H48.0153C48.0153 9.13447 47.9291 8.75 47.7568 8.41193C47.5878 8.07386 47.3458 7.80705 47.0309 7.61151C46.7194 7.41596 46.3515 7.31818 45.9272 7.31818C45.4599 7.31818 45.0556 7.43419 44.7142 7.66619C44.3761 7.89489 44.1159 8.19318 43.9336 8.56108C43.7513 8.92898 43.6602 9.32339 43.6602 9.74432V10.4205C43.6602 10.9972 43.7596 11.486 43.9585 11.8871C44.1607 12.2848 44.4407 12.5881 44.7987 12.7969C45.1566 13.0024 45.5726 13.1051 46.0466 13.1051C46.3548 13.1051 46.6332 13.062 46.8818 12.9759C47.1337 12.8864 47.3508 12.7538 47.5331 12.5781C47.7154 12.3991 47.8562 12.1771 47.9557 11.9119L49.0892 12.2301C48.9699 12.6146 48.7693 12.9527 48.4876 13.2443C48.2059 13.5327 47.8579 13.758 47.4436 13.9205C47.0293 14.0795 46.5636 14.1591 46.0466 14.1591ZM53.8768 14.1591C53.2405 14.1591 52.6787 13.9983 52.1915 13.6768C51.7042 13.352 51.3231 12.8946 51.048 12.3047C50.7729 11.7114 50.6353 11.0104 50.6353 10.2017C50.6353 9.39962 50.7729 8.7036 51.048 8.11364C51.3231 7.52367 51.7059 7.06794 52.1964 6.74645C52.687 6.42495 53.2537 6.2642 53.8967 6.2642C54.3939 6.2642 54.7866 6.34706 55.075 6.51278C55.3666 6.67519 55.5887 6.8608 55.7412 7.0696C55.8969 7.27509 56.0179 7.44413 56.1041 7.5767H56.2035V3.81818H57.3768V14H56.2433V12.8267H56.1041C56.0179 12.9659 55.8953 13.1416 55.7362 13.3537C55.5771 13.5625 55.3501 13.7498 55.0551 13.9155C54.7601 14.0779 54.3674 14.1591 53.8768 14.1591ZM54.0359 13.1051C54.5066 13.1051 54.9043 12.9825 55.2291 12.7372C55.5539 12.4886 55.8008 12.1456 55.9699 11.7081C56.1389 11.2673 56.2234 10.7585 56.2234 10.1818C56.2234 9.61174 56.1406 9.11293 55.9748 8.68537C55.8091 8.2545 55.5638 7.91974 55.239 7.68111C54.9142 7.43916 54.5132 7.31818 54.0359 7.31818C53.5388 7.31818 53.1245 7.44579 52.793 7.70099C52.4649 7.95289 52.218 8.29593 52.0522 8.73011C51.8898 9.16098 51.8086 9.64489 51.8086 10.1818C51.8086 10.7254 51.8915 11.2192 52.0572 11.6634C52.2263 12.1042 52.4748 12.4555 52.803 12.7173C53.1344 12.9759 53.5454 13.1051 54.0359 13.1051ZM63.7852 14V3.81818H64.9585V7.5767H65.0579C65.1441 7.44413 65.2634 7.27509 65.4159 7.0696C65.5717 6.8608 65.7937 6.67519 66.0821 6.51278C66.3737 6.34706 66.7682 6.2642 67.2653 6.2642C67.9083 6.2642 68.4751 6.42495 68.9656 6.74645C69.4561 7.06794 69.8389 7.52367 70.114 8.11364C70.3891 8.7036 70.5267 9.39962 70.5267 10.2017C70.5267 11.0104 70.3891 11.7114 70.114 12.3047C69.8389 12.8946 69.4578 13.352 68.9706 13.6768C68.4834 13.9983 67.9216 14.1591 67.2852 14.1591C66.7947 14.1591 66.4019 14.0779 66.1069 13.9155C65.812 13.7498 65.5849 13.5625 65.4258 13.3537C65.2667 13.1416 65.1441 12.9659 65.0579 12.8267H64.9187V14H63.7852ZM64.9386 10.1818C64.9386 10.7585 65.0231 11.2673 65.1922 11.7081C65.3612 12.1456 65.6081 12.4886 65.9329 12.7372C66.2577 12.9825 66.6555 13.1051 67.1261 13.1051C67.6166 13.1051 68.026 12.9759 68.3541 12.7173C68.6855 12.4555 68.9341 12.1042 69.0998 11.6634C69.2689 11.2192 69.3534 10.7254 69.3534 10.1818C69.3534 9.64489 69.2705 9.16098 69.1048 8.73011C68.9424 8.29593 68.6955 7.95289 68.364 7.70099C68.0359 7.44579 67.6233 7.31818 67.1261 7.31818C66.6488 7.31818 66.2478 7.43916 65.923 7.68111C65.5982 7.91974 65.3529 8.2545 65.1872 8.68537C65.0215 9.11293 64.9386 9.61174 64.9386 10.1818ZM72.8037 16.8636C72.6048 16.8636 72.4275 16.8471 72.2717 16.8139C72.1159 16.7841 72.0082 16.7543 71.9486 16.7244L72.2468 15.6903C72.5319 15.7633 72.7838 15.7898 73.0025 15.7699C73.2213 15.75 73.4152 15.6522 73.5842 15.4766C73.7566 15.3042 73.914 15.0241 74.0565 14.6364L74.2753 14.0398L71.4514 6.36364H72.7241L74.8321 12.4489H74.9116L77.0196 6.36364H78.2923L75.0508 15.1136C74.905 15.508 74.7244 15.8345 74.5089 16.093C74.2935 16.3549 74.0433 16.5488 73.7582 16.6747C73.4765 16.8007 73.1583 16.8636 72.8037 16.8636Z" fill="black" fill-opacity="0.38"/>
<path d="M119.582 9.24536L117.572 10.9402C117.378 11.1073 117.501 11.4138 117.766 11.4138H119.073V12.5581C118.445 12.9692 117.732 13.1762 116.926 13.1762C116.724 13.1762 112.623 13.1413 112.623 13.1413L113.857 11.7253C113.527 11.2218 113.361 10.6158 113.361 9.89327C113.361 8.89616 113.66 8.09891 114.258 7.50292C114.853 6.90978 115.682 6.61321 116.733 6.61321C117.904 6.61321 118.827 6.98446 119.498 7.72766L121.238 6.24481C120.819 5.60188 120.164 5.1204 119.288 4.78898C118.407 4.45756 117.521 4.29541 116.633 4.29541C114.963 4.29541 113.56 4.82668 112.433 5.8885C111.304 6.95316 110.737 8.2888 110.737 9.89682C110.737 11.5048 111.319 12.908 112.483 13.945C113.644 14.9819 115.117 15.5004 116.907 15.5004C117.775 15.5004 118.613 15.3361 119.424 15.0146C120.229 14.6882 120.921 14.2295 121.5 13.6313V9.24678H119.582L119.582 9.24536Z" fill="black" fill-opacity="0.24"/>
<path d="M90.9952 14.2234C90.118 15.0718 88.9842 15.4936 87.5856 15.4936C86.3541 15.4936 85.3852 15.1693 84.6826 14.5207C83.9829 13.872 83.6323 12.9653 83.6323 11.7918V2.89109L86.7461 1.5V5.28999H89.8783V8.08002H86.7409V10.8971C86.7409 11.151 86.7542 11.3608 86.7749 11.5308C86.7964 11.7057 86.8385 11.8878 86.9066 12.0905C86.9702 12.2882 87.0856 12.4432 87.249 12.5442C87.4147 12.6459 87.6255 12.6986 87.8858 12.6986C88.5374 12.6986 89.1676 12.4681 89.78 12.0108C90.0462 12.8202 90.4612 13.5669 90.9952 14.2234Z" fill="black" fill-opacity="0.24"/>
<path d="M141.318 12.0008C140.699 12.4667 140.062 12.7021 139.404 12.7021C139.144 12.7021 138.933 12.6488 138.767 12.5478C138.604 12.4468 138.489 12.2924 138.425 12.0947C138.357 11.892 138.315 11.71 138.293 11.5357C138.272 11.3665 138.259 11.1559 138.259 10.9028V7.9975H141.389V5.21315H138.259V1.51562L135.146 2.90583V11.796C135.146 12.9681 135.495 13.8741 136.196 14.5221C136.898 15.17 137.867 15.4943 139.099 15.4943C140.549 15.4943 141.715 15.0412 142.605 14.1302L141.315 12.0044L141.318 12.0016V12.0008Z" fill="black" fill-opacity="0.24"/>
<path d="M111.245 5.11604C110.547 5.8525 110.026 6.6694 109.718 7.5904C109.641 7.47732 109.506 7.38771 109.32 7.32085C109.104 7.24476 108.912 7.20635 108.738 7.20635C108.081 7.20635 107.644 7.58044 107.428 8.32649V15.3062L107.431 15.3091H104.314V4.50379H107.431V4.93905C107.573 4.74347 107.823 4.58771 108.184 4.47108C108.542 4.35373 108.865 4.29541 109.152 4.29541C110.036 4.29541 110.739 4.57126 111.245 5.11604Z" fill="black" fill-opacity="0.24"/>
<path d="M131.995 11.7534L133.616 13.3379C132.429 14.7795 130.823 15.4993 128.802 15.4993C127.012 15.4993 125.559 14.9858 124.438 13.961C123.322 12.9361 122.761 11.5884 122.761 9.9121C122.761 8.2358 123.296 6.85038 124.362 5.83265C125.428 4.81564 126.831 4.30713 128.563 4.30713C130.126 4.30713 131.403 4.7623 132.4 5.67761C133.395 6.59079 133.892 7.79059 133.892 9.27131C133.892 9.6582 133.835 10.24 133.719 11.0187H125.712C125.854 11.5834 126.507 12.3465 127.038 12.6232C127.57 12.9006 128.173 13.0378 128.847 13.0378C130.108 13.0378 131.324 12.5442 131.998 11.7534H131.995ZM128.478 6.68538C126.994 6.68538 126.01 7.32404 125.528 8.59282H131.248C130.927 7.32404 130.005 6.68538 128.484 6.68538H128.479H128.478Z" fill="black" fill-opacity="0.24"/>
<path d="M163.368 1.51562H160.036V15.2709H163.368V1.51562Z" fill="black" fill-opacity="0.24"/>
<path d="M99.9187 4.49771V5.10438C99.0289 4.60299 97.9816 4.30713 96.8656 4.30713C93.5891 4.30713 90.9302 6.80984 90.9302 9.90001C90.9302 12.9902 93.5883 15.4929 96.8656 15.4929C97.9816 15.4929 99.0319 15.197 99.9187 14.6956V15.2703H103.035V4.49771H99.9187ZM97.279 12.9703C95.4818 12.9703 94.0262 11.5962 94.0262 9.90001C94.0262 8.20379 95.4788 6.8326 97.279 6.8326C98.3662 6.8326 99.327 7.33115 99.9187 8.10565C100.306 8.60704 100.535 9.2265 100.535 9.90001C100.535 10.5735 100.308 11.1958 99.9187 11.6993C99.324 12.4689 98.3633 12.9724 97.279 12.9724V12.9695V12.9703Z" fill="black" fill-opacity="0.24"/>
<path d="M156.925 11.2118L156.928 11.2097L153.885 4.70211L152.399 1.51562H149.925L148.437 4.70211L145.392 11.2195L143.5 15.2709H146.934L147.237 14.6087L147.737 13.5097H154.52L155.046 14.6406L155.339 15.2709H158.823L156.925 11.2118ZM148.982 10.7849L149.172 10.3697H149.15L149.832 8.91951H149.835L150.698 7.08398L151.553 7.07634L152.446 9.02086L152.509 9.16387L153.262 10.7849H148.982Z" fill="black" fill-opacity="0.24"/>
</svg>
