<svg xmlns="http://www.w3.org/2000/svg" width="28" height="28" viewBox="0 0 28 28" fill="none">
<g clip-path="url(#clip0_19816_554905)">
<path d="M13.9912 0.0201263C21.7015 0.0201263 27.9742 6.29289 27.9742 14.0032C27.9742 21.7134 21.7015 27.9862 13.9912 27.9862C6.28094 27.9862 0.00817871 21.7134 0.00817871 14.0032C0.00817871 6.29289 6.28094 0.0201263 13.9912 0.0201263Z" fill="#FFC800"/>
<path d="M20.0026 24.4251C15.2653 27.1694 10.1034 27.6595 6.80365 26.0259C11.0182 28.5416 16.4415 28.7376 20.9827 26.1239C25.5239 23.5103 28.0396 18.7077 27.9742 13.8071C27.7782 17.4662 24.7725 21.6807 20.0026 24.4251Z" fill="black"/>
<path d="M15.7555 1.03292C16.7029 2.69912 14.3833 5.8355 10.5608 8.05711C6.73836 10.2787 2.85056 10.7034 1.87044 9.03723C1.83777 8.97189 1.8051 8.87387 1.77243 8.77586C1.51106 7.99177 1.83777 7.01165 2.52385 5.93352C2.65453 5.77016 2.75255 5.60681 2.88323 5.44346C3.96136 4.03862 5.33353 2.79714 6.96706 1.84969C8.60059 0.902239 10.3648 0.314167 12.129 0.0854728C12.325 0.0528022 12.5211 0.0201315 12.7171 0.0201315C13.9912 -0.0778804 15.004 0.183485 15.5594 0.771556C15.6574 0.902239 15.7228 0.96758 15.7555 1.03292Z" fill="black"/>
<path d="M21.7014 2.86247C23.3676 5.77016 20.0026 10.8668 14.1218 14.2645C8.24113 17.6623 2.13172 18.0216 0.465519 15.114C0.204154 14.6239 0.0408009 14.0685 0.00813024 13.5131C-0.057211 15.4733 0.269495 17.4662 1.05359 19.3611C1.18427 19.6225 1.31496 19.8839 1.44564 20.1779C1.44564 20.1779 1.44564 20.2106 1.47831 20.2106C2.00104 21.0927 2.71979 21.7788 3.66724 22.2688C6.96698 24.033 12.521 23.4123 17.7156 20.4066C22.9102 17.4009 26.21 12.8924 26.3407 9.1679C26.3733 8.12244 26.1446 7.10965 25.6546 6.26022C25.4586 5.96618 25.2625 5.70482 25.0665 5.44345C23.825 3.84259 22.2895 2.56843 20.5906 1.65366C21.048 1.98036 21.4401 2.37241 21.7014 2.86247Z" fill="black"/>
<mask id="mask0_19816_554905" style="mask-type:luminance" maskUnits="userSpaceOnUse" x="0" y="0" width="28" height="28">
<path d="M13.9912 0.0201326C21.7015 0.0201326 27.9742 6.29289 27.9742 14.0032C27.9742 21.7134 21.7015 27.9862 13.9912 27.9862C6.28094 27.9862 0.00817871 21.7134 0.00817871 14.0032C0.00817871 6.29289 6.05225 -0.143222 13.9912 0.0201326Z" fill="white"/>
</mask>
<g mask="url(#mask0_19816_554905)">
<path d="M27.9741 0.0198212H0.00805664V27.9859H27.9741V0.0198212Z" fill="url(#paint0_radial_19816_554905)"/>
</g>
</g>
<defs>
<radialGradient id="paint0_radial_19816_554905" cx="0" cy="0" r="1" gradientUnits="userSpaceOnUse" gradientTransform="translate(13.997 14.0009) scale(13.9839)">
<stop stop-color="white" stop-opacity="0"/>
<stop offset="0.5" stop-color="white" stop-opacity="0"/>
<stop offset="1" stop-color="white" stop-opacity="0.5"/>
</radialGradient>
<clipPath id="clip0_19816_554905">
<rect width="27.9755" height="28" fill="white"/>
</clipPath>
</defs>
</svg>