<svg xmlns="http://www.w3.org/2000/svg" width="167" height="18" viewBox="0 0 167 18" fill="none">
<g clip-path="url(#clip0_19816_554904)">
<path d="M75.4673 4.10843C77.2945 4.10843 78.5757 3.16332 78.8277 1.06306H77.0425C76.8534 1.79815 76.4334 2.1762 75.4673 2.1762C74.5012 2.1762 74.0181 1.79815 73.8711 1.06306H72.0859C72.3169 3.14232 73.6401 4.10843 75.4673 4.10843Z" fill="black"/>
<path d="M38.7759 12.6355V5.05354H36.5286V16.1009H38.8599L43.3965 8.39295V16.1009H45.6437V5.05354H43.2914L38.7759 12.6355Z" fill="black"/>
<path d="M28.8417 13.8746C26.8045 13.8746 25.6073 12.4044 25.6073 10.1782V9.04403C26.0484 8.18293 27.1825 7.51085 28.8417 7.51085C30.6059 7.51085 31.9501 8.35095 31.9501 10.4302C31.9501 12.5095 30.879 13.8746 28.8417 13.8746ZM29.4298 5.15856C27.6446 5.15856 26.1324 5.99867 25.3343 7.53185C25.4393 5.03255 25.9434 3.54137 28.8417 3.16332L33.3363 2.55425L33.1473 0.0969543L28.4637 0.748033C24.4312 1.2941 23.2761 4.42348 23.2761 9.31707C23.2761 13.6016 25.2083 16.3529 28.8207 16.3529C32.3282 16.3529 34.2394 13.6436 34.2394 10.4722C34.2814 7.23782 32.1601 5.15856 29.4298 5.15856Z" fill="black"/>
<path d="M89.5181 5.05354V9.19104H85.1496V5.05354H82.8813V16.1009H85.1496V11.4803H89.5181V16.1009H91.7654V5.05354H89.5181Z" fill="black"/>
<path d="M73.1781 12.6355V5.05354H70.9308V16.1009H73.2831L77.8196 8.39295V16.1009H80.0669V5.05354H77.7146L73.1781 12.6355Z" fill="black"/>
<path d="M49.6972 11.8164C49.4452 13.0555 49.1092 13.5806 48.4371 13.5806C48.059 13.5806 47.786 13.5386 47.597 13.4966V16.0589C47.87 16.1849 48.122 16.2689 48.7101 16.2689C49.8863 16.2689 50.7054 15.5968 51.1254 14.5467C51.3774 13.8956 51.5245 13.0135 51.6505 11.8584C51.7765 10.7242 51.8605 9.21204 51.8605 7.42683H54.8429V16.1219H57.0901V5.05354H49.9703C49.9703 8.39295 49.8863 10.5772 49.6972 11.8164Z" fill="black"/>
<path d="M63.4749 13.9586C62.4248 13.9586 61.6477 13.6856 61.6477 12.7195C61.6477 11.8794 62.2988 11.5223 63.4119 11.0603L65.5542 10.1572L65.5332 13.1395C65.1761 13.6226 64.441 13.9586 63.4749 13.9586ZM67.7174 13.0975L67.7384 8.72898C67.7594 5.95665 66.0792 4.82251 63.6009 4.82251C61.5637 4.82251 59.7155 5.93564 59.4424 8.51896H61.6057C61.7317 7.51083 62.5298 7.15379 63.6009 7.15379C64.7141 7.15379 65.4492 7.48983 65.5542 8.62397L62.8028 9.7371C60.9126 10.5142 59.5054 11.3753 59.5054 13.1815C59.5054 15.0717 60.5556 16.2689 62.6558 16.2689C64.105 16.2689 65.0291 15.5968 65.7432 14.2526C65.8482 15.5758 66.7303 16.1639 68.2635 16.1639H68.8726V14.0636H68.6836C67.9905 14.0636 67.7174 13.7906 67.7174 13.0975Z" fill="black"/>
<path d="M8.99433 0.0129395C13.9509 0.0129395 17.9834 4.04543 17.9834 9.00202C17.9834 13.9586 13.9509 17.9911 8.99433 17.9911C4.03773 17.9911 0.00524902 13.9586 0.00524902 9.00202C0.00524902 4.04543 4.03773 0.0129395 8.99433 0.0129395Z" fill="#FFC800"/>
<path d="M12.8588 15.7018C9.81344 17.466 6.49504 17.7811 4.37378 16.7309C7.08311 18.3481 10.5695 18.4741 13.4889 16.7939C16.4082 15.1137 18.0254 12.0264 17.9834 8.87599C17.8574 11.2283 15.9252 13.9376 12.8588 15.7018Z" fill="black"/>
<path d="M10.1285 0.66402C10.7376 1.73515 9.24638 3.75139 6.78908 5.17956C4.33178 6.60774 1.83248 6.88077 1.20241 5.80964C1.1814 5.76764 1.1604 5.70463 1.1394 5.64162C0.97138 5.13756 1.1814 4.50748 1.62246 3.8144C1.70647 3.70939 1.76948 3.60437 1.85349 3.49936C2.54657 2.59625 3.42868 1.79816 4.4788 1.18908C5.52893 0.58001 6.66307 0.201964 7.7972 0.0549467C7.92322 0.0339442 8.04923 0.0129417 8.17525 0.0129417C8.99435 -0.0500659 9.64542 0.117954 10.0025 0.496C10.0655 0.58001 10.1075 0.622015 10.1285 0.66402Z" fill="black"/>
<path d="M13.9509 1.84016C15.022 3.70938 12.8588 6.98578 9.07832 9.17004C5.29786 11.3543 1.37039 11.5853 0.299262 9.71611C0.131242 9.40107 0.0262291 9.04403 0.00522657 8.68698C-0.0367785 9.94714 0.173247 11.2283 0.677308 12.4464C0.761318 12.6145 0.845328 12.7825 0.929338 12.9715C0.929338 12.9715 0.929338 12.9925 0.950341 12.9925C1.28638 13.5596 1.74844 14.0006 2.35751 14.3157C4.47877 15.4498 8.0492 15.0508 11.3886 13.1185C14.728 11.1863 16.8493 8.28794 16.9333 5.89365C16.9543 5.22157 16.8073 4.57049 16.4922 4.02442C16.3662 3.8354 16.2402 3.66738 16.1142 3.49936C15.3161 2.47023 14.329 1.65114 13.2368 1.06306C13.5309 1.27309 13.7829 1.52512 13.9509 1.84016Z" fill="black"/>
<mask id="mask0_19816_554904" style="mask-type:luminance" maskUnits="userSpaceOnUse" x="0" y="0" width="18" height="18">
<path d="M8.99433 0.0129424C13.9509 0.0129424 17.9834 4.04543 17.9834 9.00203C17.9834 13.9586 13.9509 17.9911 8.99433 17.9911C4.03773 17.9911 0.00524902 13.9586 0.00524902 9.00203C0.00524902 4.04543 3.89072 -0.0920714 8.99433 0.0129424Z" fill="white"/>
</mask>
<g mask="url(#mask0_19816_554904)">
<path d="M17.9834 0.0127411H0.00518799V17.9909H17.9834V0.0127411Z" fill="url(#paint0_radial_19816_554904)"/>
</g>
<path d="M99.3262 8.72901V9.98916C99.3262 12.4044 100.481 13.7696 102.456 13.7696C104.409 13.7696 105.627 12.5935 105.627 10.5142C105.627 8.43497 104.451 7.44785 102.582 7.44785C101.216 7.46886 100.04 7.8679 99.3262 8.72901ZM107.958 10.5142C107.958 13.8326 105.942 16.2269 102.477 16.2269C99.0111 16.2269 96.9529 13.8536 96.9529 9.12806C96.9529 4.15046 98.171 1.27311 102.141 0.706041L106.95 0.0549622V2.44925L102.498 3.12133C100.166 3.47837 99.4522 4.73853 99.2632 7.17482C100.103 5.80965 101.489 5.15858 103.149 5.15858C106.047 5.17958 107.958 7.21682 107.958 10.5142Z" fill="#F0B900"/>
<path d="M112.39 12.2364L117.199 4.90652H119.405V16.0169H117.115V8.58197L112.285 16.0169H110.08V4.90652H112.39V12.2364Z" fill="#F0B900"/>
<path d="M128.163 12.4254C128.163 11.4593 127.47 11.0393 126.146 11.0393H124.466V9.59009H126.062C127.281 9.59009 127.869 9.08603 127.869 8.26693C127.869 7.38482 127.218 6.94377 125.915 6.94377C124.571 6.94377 123.752 7.46883 123.563 8.45595H121.589C121.862 6.08267 123.521 4.6545 125.999 4.6545C128.457 4.6545 130.032 5.83064 130.032 7.86788C130.032 8.98102 129.381 9.86312 128.394 10.1572C129.57 10.4302 130.347 11.3123 130.347 12.6565C130.347 14.9667 128.436 16.2059 125.957 16.2059C123.374 16.2059 121.715 14.8617 121.505 12.3834H123.5C123.668 13.4336 124.466 13.8956 125.852 13.8956C127.26 13.9166 128.163 13.4546 128.163 12.4254Z" fill="#F0B900"/>
<path d="M139.336 11.4803H134.778V16.0169H132.468V4.90652H134.778V9.08603H139.336V4.90652H141.646V16.0169H139.336V11.4803Z" fill="#F0B900"/>
<path d="M146.12 9.50609H152.022C151.79 8.01491 150.824 6.96478 149.102 6.96478C147.485 6.96478 146.414 7.88889 146.12 9.50609ZM149.039 16.2269C145.931 16.2269 143.789 13.7696 143.789 10.4512C143.789 7.1328 145.973 4.67551 149.102 4.67551C152.232 4.67551 154.332 7.02779 154.332 10.5562C154.332 10.6402 154.311 10.9343 154.311 11.0393H146.078C146.267 12.8665 147.401 13.9586 149.102 13.9586C150.635 13.9586 151.58 13.3706 152.001 12.4884H154.08C153.597 14.5047 152.064 16.2269 149.039 16.2269Z" fill="#F0B900"/>
<path d="M166.072 8.75H164.014C163.72 7.80488 162.817 7.15381 161.137 7.15381C159.225 7.15381 158.07 8.49797 158.07 10.4092C158.07 12.3624 159.225 13.7276 161.137 13.7276C162.817 13.7276 163.72 13.0765 164.014 12.1734H166.072C165.61 14.6727 163.804 16.2269 161.116 16.2269C157.818 16.2269 155.76 13.6856 155.76 10.4302C155.76 7.19581 157.818 4.67551 161.116 4.67551C163.804 4.67551 165.61 6.2507 166.072 8.75Z" fill="#F0B900"/>
</g>
<defs>
<radialGradient id="paint0_radial_19816_554904" cx="0" cy="0" r="1" gradientUnits="userSpaceOnUse" gradientTransform="translate(8.99809 9.00058) scale(8.98966)">
<stop stop-color="white" stop-opacity="0"/>
<stop offset="0.5" stop-color="white" stop-opacity="0"/>
<stop offset="1" stop-color="white" stop-opacity="0.5"/>
</radialGradient>
<clipPath id="clip0_19816_554904">
<rect width="166.072" height="18" fill="white"/>
</clipPath>
</defs>
</svg>