<svg xmlns="http://www.w3.org/2000/svg" width="352" height="38" viewBox="0 0 352 38" fill="none">
<path d="M160.022 8.67325C163.879 8.67325 166.584 6.67801 167.116 2.24414H163.347C162.948 3.79599 162.061 4.59409 160.022 4.59409C157.982 4.59409 156.962 3.79599 156.652 2.24414H152.883C153.371 6.63367 156.164 8.67325 160.022 8.67325Z" fill="black"/>
<path d="M82.5616 26.6752V10.6689H77.8174V33.9911H82.739L92.3161 17.7188V33.9911H97.0604V10.6689H92.0944L82.5616 26.6752Z" fill="black"/>
<path d="M61.5901 29.2913C57.2892 29.2913 54.7619 26.1875 54.7619 21.4876V19.0934C55.693 17.2755 58.0873 15.8566 61.5901 15.8566C65.3145 15.8566 68.1522 17.6302 68.1522 22.0197C68.1522 26.4092 65.8909 29.2913 61.5901 29.2913ZM62.8316 10.8907C59.0628 10.8907 55.8704 12.6642 54.1855 15.901C54.4072 10.6247 55.4713 7.47662 61.5901 6.67853L71.0786 5.3927L70.6795 0.205078L60.792 1.57958C52.279 2.73238 49.8403 9.33885 49.8403 19.6698C49.8403 28.7148 53.9195 34.5232 61.5457 34.5232C68.9503 34.5232 72.9851 28.8035 72.9851 22.1084C73.0738 15.2802 68.5956 10.8907 62.8316 10.8907Z" fill="black"/>
<path d="M189.684 10.6689V19.4037H180.462V10.6689H175.673V33.9911H180.462V24.2366H189.684V33.9911H194.429V10.6689H189.684Z" fill="black"/>
<path d="M155.189 26.6752V10.6689H150.444V33.9911H155.41L164.987 17.7188V33.9911H169.732V10.6689H164.766L155.189 26.6752Z" fill="black"/>
<path d="M105.618 24.946C105.086 27.562 104.376 28.6704 102.958 28.6704C102.16 28.6704 101.583 28.5818 101.184 28.4931V33.9024C101.76 34.1684 102.293 34.3458 103.534 34.3458C106.017 34.3458 107.746 32.927 108.633 30.71C109.165 29.3355 109.475 27.4733 109.741 25.0347C110.007 22.6404 110.185 19.448 110.185 15.6792H116.481V34.0354H121.225V10.6689H106.194C106.194 17.7188 106.017 22.33 105.618 24.946Z" fill="black"/>
<path d="M134.704 29.4685C132.487 29.4685 130.846 28.8921 130.846 26.8525C130.846 25.0789 132.221 24.3252 134.571 23.3497L139.093 21.4432L139.049 27.7393C138.295 28.7591 136.744 29.4685 134.704 29.4685ZM143.66 27.6506L143.705 18.4281C143.749 12.5754 140.202 10.1812 134.97 10.1812C130.669 10.1812 126.767 12.5311 126.191 17.9848H130.758C131.024 15.8565 132.709 15.1027 134.97 15.1027C137.32 15.1027 138.872 15.8122 139.093 18.2065L133.285 20.5564C129.295 22.1969 126.324 24.0148 126.324 27.8279C126.324 31.8184 128.541 34.3457 132.975 34.3457C136.034 34.3457 137.985 32.9269 139.493 30.0892C139.714 32.8826 141.576 34.124 144.813 34.124H146.099V29.6902H145.7C144.237 29.6902 143.66 29.1138 143.66 27.6506Z" fill="black"/>
<path d="M19.6894 0.027832C30.1533 0.027832 38.6663 8.54086 38.6663 19.0048C38.6663 29.4687 30.1533 37.9817 19.6894 37.9817C9.22543 37.9817 0.712402 29.4687 0.712402 19.0048C0.712402 8.54086 9.22543 0.027832 19.6894 0.027832Z" fill="#FFC800"/>
<path d="M27.8479 33.1483C21.4188 36.8728 14.4133 37.5379 9.93506 35.3209C15.6547 38.735 23.015 39.0011 29.178 35.454C35.3411 31.9069 38.7552 25.3891 38.6665 18.7383C38.4005 23.7042 34.3213 29.4239 27.8479 33.1483Z" fill="black"/>
<path d="M22.0842 1.40182C23.37 3.66309 20.222 7.91961 15.0343 10.9346C9.84672 13.9497 4.57041 14.5261 3.24025 12.2648C3.19591 12.1761 3.15157 12.0431 3.10724 11.9101C2.75253 10.846 3.19591 9.5158 4.12703 8.05262C4.30438 7.83093 4.4374 7.60923 4.61475 7.38754C6.07793 5.48098 7.94015 3.79611 10.1571 2.51029C12.374 1.22447 14.7683 0.426369 17.1626 0.115999C17.4286 0.07166 17.6947 0.0273213 17.9607 0.0273213C19.6899 -0.105695 21.0644 0.249015 21.8182 1.04711C21.9512 1.22447 22.0399 1.31314 22.0842 1.40182Z" fill="black"/>
<path d="M30.1536 3.88467C32.4149 7.83081 27.848 14.7476 19.867 19.3589C11.886 23.9701 3.59471 24.4578 1.33344 20.5117C0.978726 19.8466 0.757033 19.0928 0.712694 18.3391C0.624017 20.9994 1.0674 23.7041 2.13153 26.2757C2.30889 26.6304 2.48624 26.9851 2.6636 27.3842C2.6636 27.3842 2.6636 27.4285 2.70793 27.4285C3.41735 28.6257 4.3928 29.5568 5.67863 30.2218C10.1568 32.6161 17.6944 31.7737 24.7443 27.6945C31.7941 23.6154 36.2723 17.4966 36.4497 12.442C36.494 11.0232 36.1836 9.6487 35.5186 8.49589C35.2525 8.09685 34.9865 7.74214 34.7205 7.38743C33.0356 5.21483 30.9517 3.48562 28.6461 2.24414C29.2668 2.68753 29.7989 3.21959 30.1536 3.88467Z" fill="black"/>
<mask id="mask0_19652_846409" style="mask-type:luminance" maskUnits="userSpaceOnUse" x="0" y="0" width="39" height="38">
<path d="M19.6894 0.0265903C30.1533 0.0265903 38.6663 8.53962 38.6663 19.0035C38.6663 29.4675 30.1533 37.9805 19.6894 37.9805C9.22543 37.9805 0.712402 29.4675 0.712402 19.0035C0.712402 8.53962 8.91506 -0.195105 19.6894 0.0265903Z" fill="white"/>
</mask>
<g mask="url(#mask0_19652_846409)">
<path d="M38.6663 0.0268555H0.712402V37.9808H38.6663V0.0268555Z" fill="url(#paint0_radial_19652_846409)"/>
</g>
<path d="M210.39 18.4286V21.0889C210.39 26.1878 212.829 29.0699 216.997 29.0699C221.12 29.0699 223.692 26.5869 223.692 22.1974C223.692 17.8078 221.209 15.7239 217.263 15.7239C214.381 15.7683 211.898 16.6107 210.39 18.4286ZM228.613 22.1974C228.613 29.2029 224.357 34.2575 217.041 34.2575C209.725 34.2575 205.38 29.2472 205.38 19.271C205.38 8.76274 207.952 2.68834 216.332 1.4912L226.485 0.116699V5.17131L217.085 6.59015C212.164 7.3439 210.656 10.0042 210.257 15.1475C212.031 12.2655 214.957 10.891 218.46 10.891C224.579 10.9353 228.613 15.2362 228.613 22.1974Z" fill="#F0B900"/>
<path d="M237.969 25.8331L248.123 10.3589H252.778V33.814H247.945V18.1182L237.747 33.814H233.092V10.3589H237.969V25.8331Z" fill="#F0B900"/>
<path d="M271.267 26.231C271.267 24.1914 269.804 23.3046 267.011 23.3046H263.464V20.2453H266.833C269.405 20.2453 270.647 19.1811 270.647 17.4519C270.647 15.5897 269.272 14.6586 266.523 14.6586C263.685 14.6586 261.956 15.7671 261.557 17.851H257.389C257.966 12.8407 261.468 9.82568 266.7 9.82568C271.888 9.82568 275.213 12.3086 275.213 16.6095C275.213 18.9595 273.839 20.8217 271.755 21.4424C274.238 22.0188 275.878 23.881 275.878 26.7187C275.878 31.596 271.844 34.212 266.612 34.212C261.158 34.212 257.655 31.3743 257.212 26.1423H261.424C261.779 28.3593 263.464 29.3347 266.39 29.3347C269.361 29.379 271.267 28.4036 271.267 26.231Z" fill="#F0B900"/>
<path d="M294.856 24.2369H285.234V33.814H280.357V10.3589H285.234V19.1823H294.856V10.3589H299.733V33.814H294.856V24.2369Z" fill="#F0B900"/>
<path d="M309.177 20.068H321.636C321.148 16.92 319.109 14.703 315.473 14.703C312.059 14.703 309.798 16.6539 309.177 20.068ZM315.34 34.2564C308.778 34.2564 304.255 29.0688 304.255 22.0633C304.255 15.0577 308.867 9.87012 315.473 9.87012C322.08 9.87012 326.513 14.836 326.513 22.2849C326.513 22.4623 326.469 23.083 326.469 23.3047H309.088C309.487 27.1622 311.882 29.4678 315.473 29.4678C318.71 29.4678 320.705 28.2263 321.592 26.3641H325.981C324.962 30.6206 321.725 34.2564 315.34 34.2564Z" fill="#F0B900"/>
<path d="M351.299 18.4718H346.953C346.333 16.4766 344.426 15.1021 340.879 15.1021C336.844 15.1021 334.406 17.9398 334.406 21.9746C334.406 26.0981 336.844 28.9801 340.879 28.9801C344.426 28.9801 346.333 27.6056 346.953 25.699H351.299C350.323 30.9753 346.51 34.2564 340.835 34.2564C333.874 34.2564 329.528 28.8914 329.528 22.0189C329.528 15.1908 333.874 9.87012 340.835 9.87012C346.51 9.87012 350.323 13.1955 351.299 18.4718Z" fill="#F0B900"/>
<defs>
<radialGradient id="paint0_radial_19652_846409" cx="0" cy="0" r="1" gradientUnits="userSpaceOnUse" gradientTransform="translate(19.6974 19.0012) scale(18.9782)">
<stop stop-color="white" stop-opacity="0"/>
<stop offset="0.5" stop-color="white" stop-opacity="0"/>
<stop offset="1" stop-color="white" stop-opacity="0.5"/>
</radialGradient>
</defs>
</svg>