<svg width="177" height="32" viewBox="0 0 177 32" fill="none" xmlns="http://www.w3.org/2000/svg">
<rect width="16" height="32" fill="white" fill-opacity="0.01"/>
<g clip-path="url(#clip0_11773_22073)">
<path d="M67.1689 17.0635L64.3078 19.4847C64.032 19.7234 64.2067 20.1613 64.5836 20.1613H66.4447V21.7961C65.5499 22.3833 64.5351 22.679 63.3888 22.679C63.1014 22.679 57.2633 22.6292 57.2633 22.6292L59.0202 20.6063C58.5507 19.887 58.3149 19.0214 58.3149 17.9891C58.3149 16.5647 58.7402 15.4257 59.5908 14.5743C60.4371 13.727 61.6172 13.3033 63.113 13.3033C64.7804 13.3033 66.0941 13.8337 67.0489 14.8954L69.5258 12.777C68.929 11.8586 67.9963 11.1707 66.75 10.6973C65.4962 10.2238 64.2351 9.99219 62.9709 9.99219C60.594 9.99219 58.5981 10.7511 56.9938 12.268C55.3864 13.789 54.5801 15.697 54.5801 17.9942C54.5801 20.2914 55.4085 22.2959 57.0644 23.7773C58.7171 25.2586 60.814 25.9992 63.3614 25.9992C64.5962 25.9992 65.7899 25.7646 66.9436 25.3053C68.0889 24.839 69.0742 24.1837 69.8985 23.3292V17.0656H67.1679L67.1689 17.0635Z" fill="#FF4923"/>
<path d="M26.4793 24.1762C25.2308 25.3883 23.6171 25.9908 21.6265 25.9908C19.8738 25.9908 18.4948 25.5275 17.4948 24.6009C16.499 23.6743 16 22.3789 16 20.7025V7.98727L20.4317 6V11.4143H24.8897V15.4H20.4244V19.4244C20.4244 19.7871 20.4433 20.0868 20.4728 20.3296C20.5033 20.5796 20.5633 20.8397 20.6602 21.1292C20.7507 21.4117 20.9149 21.6332 21.1475 21.7774C21.3833 21.9227 21.6833 21.9979 22.0539 21.9979C22.9813 21.9979 23.8782 21.6687 24.7498 21.0154C25.1287 22.1717 25.7193 23.2385 26.4793 24.1762Z" fill="#4E13CF"/>
<path d="M98.1048 21.0023C97.2248 21.6678 96.3184 22.0041 95.3816 22.0041C95.011 22.0041 94.711 21.9279 94.4752 21.7836C94.2426 21.6393 94.0784 21.4189 93.9878 21.1364C93.891 20.8469 93.831 20.5868 93.8005 20.3378C93.7699 20.096 93.752 19.7953 93.752 19.4336V15.2832H98.2059V11.3056H93.752V6.02344L89.3203 8.00944V20.7097C89.3203 22.3841 89.8182 23.6784 90.8151 24.604C91.8151 25.5296 93.1941 25.9929 94.9468 25.9929C97.0111 25.9929 98.6701 25.3457 99.9364 24.0442L98.1006 21.0074L98.1048 21.0033V21.0023Z" fill="#FF4923"/>
<path d="M55.3009 11.1645C54.3085 12.2166 53.5663 13.3836 53.1284 14.6993C53.0178 14.5378 52.8262 14.4098 52.562 14.3142C52.2546 14.2055 51.9809 14.1507 51.7336 14.1507C50.7978 14.1507 50.1756 14.6851 49.8682 15.7509V25.7219L49.8725 25.7259H45.4365V10.2899H49.8725V10.9117C50.0746 10.6323 50.4304 10.4098 50.9441 10.2431C51.4536 10.0755 51.9136 9.99219 52.322 9.99219C53.5799 9.99219 54.5808 10.3863 55.3009 11.1645Z" fill="#4E13CF"/>
<path d="M84.8309 20.6492L87.1384 22.9129C85.4488 24.9723 83.1635 26.0005 80.2866 26.0005C77.7391 26.0005 75.6717 25.2669 74.0758 23.8029C72.4874 22.3388 71.6895 20.4135 71.6895 18.0188C71.6895 15.6241 72.4505 13.6449 73.9674 12.191C75.4843 10.7382 77.4812 10.0117 79.9466 10.0117C82.1719 10.0117 83.9888 10.662 85.4078 11.9695C86.8236 13.2741 87.5321 14.9881 87.5321 17.1034C87.5321 17.6561 87.45 18.4872 87.2847 19.5997H75.8896C76.0917 20.4064 77.0212 21.4966 77.777 21.8918C78.5339 22.288 79.3918 22.4841 80.3508 22.4841C82.1456 22.4841 83.8762 21.779 84.8351 20.6492H84.8309ZM79.8266 13.4092C77.7139 13.4092 76.3128 14.3216 75.6275 16.1341H83.7677C83.3109 14.3216 81.9993 13.4092 79.835 13.4092H79.8276H79.8266Z" fill="#FF4923"/>
<path d="M136 6.02344H131.258V25.6739H136V6.02344Z" fill="#4E13CF"/>
<path d="M39.1778 10.284V11.1507C37.9115 10.4344 36.4209 10.0117 34.8324 10.0117C30.1691 10.0117 26.3848 13.587 26.3848 18.0015C26.3848 22.416 30.168 25.9913 34.8324 25.9913C36.4209 25.9913 37.9157 25.5687 39.1778 24.8524V25.6733H43.6127V10.284H39.1778ZM35.4209 22.3876C32.8629 22.3876 30.7912 20.4247 30.7912 18.0015C30.7912 15.5784 32.8587 13.6195 35.4209 13.6195C36.9683 13.6195 38.3357 14.3317 39.1778 15.4382C39.7284 16.1544 40.0547 17.0394 40.0547 18.0015C40.0547 18.9637 39.7326 19.8527 39.1778 20.572C38.3315 21.6713 36.9641 22.3906 35.4209 22.3906V22.3866V22.3876Z" fill="#4E13CF"/>
<path d="M126.833 19.8751L126.837 19.8722L122.506 10.5755L120.39 6.02344H116.869L114.752 10.5755L110.418 19.886L107.725 25.6739H112.612L113.044 24.7277L113.755 23.1578H123.409L124.159 24.7734L124.576 25.6739H129.534L126.833 19.8751ZM115.528 19.2652L115.798 18.6722H115.767L116.738 16.6004H116.742L117.97 13.9782L119.187 13.9673L120.458 16.7452L120.547 16.9495L121.619 19.2652H115.528Z" fill="#4E13CF"/>
</g>
<rect width="16" height="32" transform="translate(136)" fill="white" fill-opacity="0.01"/>
<defs>
<clipPath id="clip0_11773_22073">
<rect width="120" height="20" fill="white" transform="translate(16 6)"/>
</clipPath>
</defs>
</svg>
