<svg width="220" height="38" viewBox="0 0 220 38" fill="none" xmlns="http://www.w3.org/2000/svg">
<path d="M99.1906 21.022L93.6441 25.6222C93.1094 26.0758 93.4482 26.9078 94.1787 26.9078H97.7866V30.0138C96.0521 31.1296 94.0848 31.6913 91.8625 31.6913C91.3054 31.6913 79.9878 31.5967 79.9878 31.5967L83.3937 27.7533C82.4836 26.3866 82.0265 24.7419 82.0265 22.7806C82.0265 20.0742 82.8509 17.9102 84.4998 16.2925C86.1405 14.6826 88.4281 13.8776 91.3279 13.8776C94.5603 13.8776 97.1071 14.8853 98.958 16.9025L103.76 12.8777C102.603 11.1326 100.795 9.82569 98.3784 8.92612C95.948 8.02656 93.5033 7.58643 91.0524 7.58643C86.4445 7.58643 82.5754 9.02843 79.4654 11.9105C76.3493 14.8003 74.7861 18.4256 74.7861 22.7903C74.7861 27.1549 76.3921 30.9636 79.6021 33.7781C82.806 36.5926 86.871 37.9999 91.8095 37.9999C94.2032 37.9999 96.5173 37.554 98.7539 36.6814C100.974 35.7954 102.884 34.5503 104.482 32.9268V21.0259H99.1886L99.1906 21.022Z" fill="#FF4923"/>
<path d="M20.315 34.5349C17.8947 36.8378 14.7664 37.9826 10.9074 37.9826C7.50971 37.9826 4.83641 37.1023 2.89777 35.3418C0.967283 33.5812 0 31.12 0 27.9348V3.77583L8.59127 0V10.2871H17.2335V17.8601H8.57698V25.5064C8.57698 26.1955 8.61371 26.765 8.67085 27.2264C8.73003 27.7013 8.84635 28.1954 9.03409 28.7456C9.20959 29.2822 9.52794 29.7031 9.97893 29.9772C10.436 30.2532 11.0176 30.3961 11.736 30.3961C13.5338 30.3961 15.2725 29.7706 16.9621 28.5294C17.6968 30.7262 18.8416 32.7531 20.315 34.5349Z" fill="#4E13CF"/>
<path d="M159.16 28.5029C157.454 29.7673 155.697 30.4062 153.881 30.4062C153.163 30.4062 152.581 30.2615 152.124 29.9873C151.673 29.7132 151.355 29.2943 151.179 28.7577C150.991 28.2075 150.875 27.7133 150.816 27.2404C150.757 26.7809 150.722 26.2095 150.722 25.5223V17.6366H159.356V10.0791H150.722V0.0429688L142.131 3.81637V27.9469C142.131 31.1282 143.096 33.5875 145.029 35.3461C146.967 37.1047 149.641 37.985 153.038 37.985C157.04 37.985 160.256 36.7553 162.711 34.2825L159.152 28.5125L159.16 28.5048V28.5029Z" fill="#FF4923"/>
<path d="M76.1873 9.81384C74.2634 11.8128 72.8246 14.0301 71.9757 16.53C71.7614 16.223 71.39 15.9798 70.8778 15.7983C70.2819 15.5918 69.7514 15.4876 69.2718 15.4876C67.4576 15.4876 66.2516 16.5029 65.6557 18.5279V37.4729L65.6639 37.4806H57.0645V8.15203H65.6639V9.33344C66.0557 8.80258 66.7454 8.37982 67.7413 8.06323C68.729 7.74472 69.6208 7.58643 70.4125 7.58643C72.8512 7.58643 74.7915 8.33515 76.1873 9.81384Z" fill="#4E13CF"/>
<path d="M133.438 27.8304L137.911 32.1314C134.636 36.0443 130.205 37.9979 124.628 37.9979C119.69 37.9979 115.682 36.6041 112.588 33.8224C109.509 31.0407 107.962 27.3826 107.962 22.8326C107.962 18.2827 109.437 14.5223 112.378 11.7598C115.319 8.99938 119.19 7.61914 123.969 7.61914C128.283 7.61914 131.805 8.8546 134.556 11.339C137.301 13.8177 138.674 17.0742 138.674 21.0933C138.674 22.1435 138.515 23.7225 138.195 25.8363H116.104C116.496 27.3691 118.298 29.4404 119.763 30.1913C121.23 30.9442 122.894 31.3167 124.753 31.3167C128.232 31.3167 131.587 29.977 133.446 27.8304H133.438ZM123.736 14.0744C119.641 14.0744 116.925 15.8079 115.596 19.2517H131.377C130.491 15.8079 127.948 14.0744 123.753 14.0744H123.738H123.736Z" fill="#FF4923"/>
<path d="M220 0.0429688H210.807V37.3788H220V0.0429688Z" fill="#4E13CF"/>
<path d="M44.9347 8.13644V9.78312C42.4797 8.42219 39.5901 7.61914 36.5107 7.61914C27.4705 7.61914 20.1343 14.4122 20.1343 22.7998C20.1343 31.1874 27.4685 37.9805 36.5107 37.9805C39.5901 37.9805 42.4879 37.1774 44.9347 35.8165V37.3763H53.5321V8.13644H44.9347ZM37.6515 31.1333C32.6926 31.1333 28.6766 27.4038 28.6766 22.7998C28.6766 18.1958 32.6845 14.474 37.6515 14.474C40.6513 14.474 43.3021 15.8272 44.9347 17.9294C46.0019 19.2903 46.6346 20.9717 46.6346 22.7998C46.6346 24.6279 46.0101 26.317 44.9347 27.6837C43.294 29.7724 40.6431 31.1391 37.6515 31.1391V31.1314V31.1333Z" fill="#4E13CF"/>
<path d="M202.224 26.3612L202.232 26.3556L193.836 8.69199L189.735 0.0429688H182.909L178.805 8.69199L170.403 26.382L165.181 37.3788H174.656L175.493 35.5812L176.872 32.5983H195.587L197.04 35.6679L197.848 37.3788H207.46L202.224 26.3612ZM180.309 25.2024L180.831 24.0756H180.772L182.653 20.1392H182.662L185.043 15.1571L187.402 15.1364L189.865 20.4143L190.039 20.8025L192.116 25.2024H180.309Z" fill="#4E13CF"/>
</svg>
