<svg width="24" height="24" viewBox="0 0 24 24" fill="none" xmlns="http://www.w3.org/2000/svg">
<path d="M19.3913 10.6023L15.1015 14.2324C14.6879 14.5904 14.9499 15.247 15.515 15.247H18.3054V17.698C16.9639 18.5785 15.4424 19.0218 13.7236 19.0218C13.2927 19.0218 4.53945 18.9471 4.53945 18.9471L7.17364 15.9142C6.46971 14.8357 6.11618 13.5378 6.11618 11.9901C6.11618 9.85439 6.75381 8.14675 8.02908 6.8702C9.29804 5.59975 11.0673 4.96452 13.3101 4.96452C15.8101 4.96452 17.7798 5.7597 19.2114 7.35157L22.9251 4.17544C22.0302 2.79835 20.6318 1.76706 18.7631 1.05719C16.8834 0.347318 14.9925 0 13.097 0C9.5332 0 6.54074 1.13792 4.1354 3.41225C1.72534 5.69267 0.516357 8.55347 0.516357 11.9977C0.516357 15.442 1.75848 18.4475 4.24115 20.6685C6.71909 22.8895 9.86307 24 13.6826 24C15.5339 24 17.3237 23.6481 19.0535 22.9596C20.7707 22.2604 22.248 21.2778 23.4838 19.9967V10.6054H19.3897L19.3913 10.6023Z" fill="#FF4923"/>
</svg>
